<svg width="50" height="50" viewBox="0 0 50 50" fill="none" xmlns="http://www.w3.org/2000/svg">
<path fill-rule="evenodd" clip-rule="evenodd" d="M24.9999 47.9166C37.6564 47.9166 47.9166 37.6564 47.9166 24.9999C47.9166 12.3434 37.6564 2.08325 24.9999 2.08325C12.3434 2.08325 2.08325 12.3434 2.08325 24.9999C2.08325 37.6564 12.3434 47.9166 24.9999 47.9166ZM23.2628 35.4166L28.101 43.4803C33.2918 42.6155 37.7605 39.617 40.5753 35.4166H23.2628ZM14.3261 28.6205L23.3522 43.6643C17.6629 43.1685 12.7019 40.1299 9.61219 35.6914L14.3261 28.6205ZM15.8988 18.7499H7.33192C6.64044 20.7046 6.26415 22.8082 6.26415 24.9999C6.26415 27.2768 6.67025 29.4587 7.41398 31.4772L15.8988 18.7499ZM42.6678 31.2499H33.988L42.3735 17.9731C43.252 20.143 43.7357 22.5149 43.7357 24.9999C43.7357 27.1916 43.3595 29.2951 42.6678 31.2499ZM26.737 14.5833H9.42444C12.2392 10.3828 16.7081 7.38421 21.8989 6.51961L26.737 14.5833ZM26.6476 6.33561L35.4889 21.071L40.0535 13.8436C36.9468 9.65846 32.1362 6.81379 26.6476 6.33561ZM17.04 24.9999L20.9462 18.7499H29.0537L32.9599 24.9999L29.0537 31.2499H20.9462L17.04 24.9999Z" fill="#0F0F0F"/>
</svg>
